<?xml version="1.0" encoding="UTF-8" standalone="no"?>
<!-- Created with Inkscape (http://www.inkscape.org/) -->

<svg
   xmlns:dc="http://purl.org/dc/elements/1.1/"
   xmlns:cc="http://creativecommons.org/ns#"
   xmlns:rdf="http://www.w3.org/1999/02/22-rdf-syntax-ns#"
   xmlns:svg="http://www.w3.org/2000/svg"
   xmlns="http://www.w3.org/2000/svg"
   xmlns:xlink="http://www.w3.org/1999/xlink"
   xmlns:sodipodi="http://sodipodi.sourceforge.net/DTD/sodipodi-0.dtd"
   xmlns:inkscape="http://www.inkscape.org/namespaces/inkscape"
   width="500"
   height="500"
   id="svg2"
   version="1.1"
   inkscape:version="0.48.4 r9939"
   sodipodi:docname="icon.svg"
   inkscape:export-filename="/home/flo/projects/dreamDroid/icon.png"
   inkscape:export-xdpi="180"
   inkscape:export-ydpi="180">
  <defs
     id="defs4">
    <linearGradient
       inkscape:collect="always"
       id="linearGradient3986">
      <stop
         style="stop-color:#414141;stop-opacity:1"
         offset="0"
         id="stop3988" />
      <stop
         style="stop-color:#777777;stop-opacity:1"
         offset="1"
         id="stop3990" />
    </linearGradient>
    <linearGradient
       id="linearGradient3980">
      <stop
         id="stop3982"
         offset="0"
         style="stop-color:#555555;stop-opacity:1" />
      <stop
         id="stop3984"
         offset="1"
         style="stop-color:#777777;stop-opacity:1" />
    </linearGradient>
    <linearGradient
       id="linearGradient3974">
      <stop
         id="stop3976"
         offset="0"
         style="stop-color:#555555;stop-opacity:1" />
      <stop
         id="stop3978"
         offset="1"
         style="stop-color:#ffffff;stop-opacity:1" />
    </linearGradient>
    <linearGradient
       id="linearGradient3968">
      <stop
         id="stop3970"
         offset="0"
         style="stop-color:#555555;stop-opacity:1" />
      <stop
         id="stop3972"
         offset="1"
         style="stop-color:#ffffff;stop-opacity:1" />
    </linearGradient>
    <linearGradient
       id="linearGradient3906">
      <stop
         style="stop-color:#111111;stop-opacity:1"
         offset="0"
         id="stop3908" />
      <stop
         style="stop-color:#909090;stop-opacity:1;"
         offset="1"
         id="stop3910" />
    </linearGradient>
    <linearGradient
       id="linearGradient3809">
      <stop
         style="stop-color:#fffb74;stop-opacity:1;"
         offset="0"
         id="stop3811" />
      <stop
         style="stop-color:#fcf518;stop-opacity:1;"
         offset="1"
         id="stop3813" />
    </linearGradient>
    <linearGradient
       id="linearGradient3796">
      <stop
         style="stop-color:#13a100;stop-opacity:1;"
         offset="0"
         id="stop3798" />
      <stop
         style="stop-color:#11e003;stop-opacity:1;"
         offset="1"
         id="stop3800" />
    </linearGradient>
    <linearGradient
       id="linearGradient3758">
      <stop
         style="stop-color:#111111;stop-opacity:1"
         offset="0"
         id="stop3760" />
      <stop
         style="stop-color:#222222;stop-opacity:1"
         offset="1"
         id="stop3762" />
    </linearGradient>
    <filter
       inkscape:collect="always"
       id="filter3854">
      <feGaussianBlur
         inkscape:collect="always"
         stdDeviation="1.8542024"
         id="feGaussianBlur3856" />
    </filter>
    <filter
       inkscape:collect="always"
       id="filter3858"
       x="-0.012884074"
       width="1.0257681"
       y="-0.17488224"
       height="1.3497645">
      <feGaussianBlur
         inkscape:collect="always"
         stdDeviation="1.8505813"
         id="feGaussianBlur3860" />
    </filter>
    <linearGradient
       inkscape:collect="always"
       xlink:href="#linearGradient3980"
       id="linearGradient3958"
       gradientUnits="userSpaceOnUse"
       x1="242.7451"
       y1="400.24506"
       x2="242.7451"
       y2="126.23111" />
    <linearGradient
       inkscape:collect="always"
       xlink:href="#linearGradient3796"
       id="linearGradient3960"
       gradientUnits="userSpaceOnUse"
       x1="245.53125"
       y1="919.14148"
       x2="245.53125"
       y2="705.125" />
    <radialGradient
       inkscape:collect="always"
       xlink:href="#linearGradient3809"
       id="radialGradient3962"
       gradientUnits="userSpaceOnUse"
       gradientTransform="matrix(1,0,0,0.56198347,0,286.43137)"
       cx="245.85759"
       cy="628.60132"
       fx="245.85759"
       fy="628.60132"
       r="30.25" />
    <linearGradient
       inkscape:collect="always"
       xlink:href="#linearGradient3974"
       id="linearGradient3964"
       gradientUnits="userSpaceOnUse"
       x1="-48.168247"
       y1="694.07495"
       x2="-46.843933"
       y2="684.00641"
       gradientTransform="matrix(1.2757214,0,0,1.2757214,25.501632,-190.85498)" />
    <linearGradient
       inkscape:collect="always"
       xlink:href="#linearGradient3968"
       id="linearGradient3966"
       gradientUnits="userSpaceOnUse"
       gradientTransform="matrix(1.2757214,0,0,1.2757214,-406.76002,-440.42136)"
       x1="-48.168247"
       y1="694.07495"
       x2="-46.843933"
       y2="684.00641" />
    <linearGradient
       inkscape:collect="always"
       xlink:href="#linearGradient3986"
       id="linearGradient3992"
       x1="251.18823"
       y1="675.9541"
       x2="251.18823"
       y2="653.5083"
       gradientUnits="userSpaceOnUse" />
  </defs>
  <sodipodi:namedview
     id="base"
     pagecolor="#000000"
     bordercolor="#666666"
     borderopacity="1.0"
     inkscape:pageopacity="0"
     inkscape:pageshadow="2"
     inkscape:zoom="1"
     inkscape:cx="339.52642"
     inkscape:cy="217.7889"
     inkscape:document-units="px"
     inkscape:current-layer="layer1"
     showgrid="false"
     inkscape:window-width="1859"
     inkscape:window-height="1056"
     inkscape:window-x="1341"
     inkscape:window-y="24"
     inkscape:window-maximized="1" />
  <metadata
     id="metadata7">
    <rdf:RDF>
      <cc:Work
         rdf:about="">
        <dc:format>image/svg+xml</dc:format>
        <dc:type
           rdf:resource="http://purl.org/dc/dcmitype/StillImage" />
        <dc:title></dc:title>
      </cc:Work>
    </rdf:RDF>
  </metadata>
  <g
     inkscape:label="Ebene 1"
     inkscape:groupmode="layer"
     id="layer1"
     transform="translate(0,-552.36218)">
    <g
       id="g3942"
       transform="matrix(1.1394343,0,0,1.1394343,-32.56579,-83.54793)">
      <path
         sodipodi:nodetypes="ccccc"
         inkscape:connector-curvature="0"
         id="rect2985"
         d="m 32.745102,124.24995 432.235378,0 -4,273.9902 -424.235378,0 z"
         style="fill:url(#linearGradient3958);fill-opacity:1;stroke:none"
         transform="translate(0,552.36218)" />
      <path
         style="fill:url(#linearGradient3992);fill-opacity:1;stroke:none"
         d="m 32.745102,676.61213 432.235378,0 -54,-23.6569 -324.235378,0 z"
         id="path2988"
         inkscape:connector-curvature="0"
         sodipodi:nodetypes="ccccc" />
      <path
         inkscape:connector-curvature="0"
         id="path3766"
         d="m 64.3125,922.625 c 123.03125,0 246.0625,0 369.09375,0 1.04167,-72.66667 2.08333,-145.33333 3.125,-218 -125.11458,0 -250.22917,0 -375.34375,0 1.041667,72.66667 2.083333,145.33333 3.125,218 z"
         style="fill:url(#linearGradient3960);fill-opacity:1;stroke:none" />
      <path
         inkscape:connector-curvature="0"
         id="path3804"
         d="m 248.86279,634.36218 c -16.70661,0 -30.25,11.30481 -30.25,25.25 0,1.76681 0.24256,3.49183 0.65625,5.15625 8.99184,2.29151 19.00712,3.59375 29.59375,3.59375 10.58663,0 20.60191,-1.30224 29.59375,-3.59375 0.41369,-1.66442 0.65625,-3.38944 0.65625,-5.15625 0,-13.94519 -13.54339,-25.25 -30.25,-25.25 z"
         style="fill:url(#radialGradient3962);fill-opacity:1;stroke:none" />
      <rect
         inkscape:transform-center-y="-20.730549"
         inkscape:transform-center-x="-35.906438"
         ry="4.4650249"
         y="690.3606"
         x="-91.514038"
         height="8.9300499"
         width="79.909355"
         id="rect3819"
         style="fill:#555555;fill-opacity:1;stroke:url(#linearGradient3964);stroke-width:3.35882831;stroke-miterlimit:4;stroke-opacity:1;stroke-dasharray:none"
         transform="matrix(0.8660254,-0.5,0.5,0.8660254,0,0)" />
      <path
         style="fill:#ffffff;fill-opacity:0.50980386;filter:url(#filter3854)"
         d="m 135.67928,821.09259 c -9.90572,-3.422 -13.59278,-6.505 -19.21429,-16.06681 -3.4631,-5.89037 -4.20185,-9.10103 -4.20185,-18.26144 0,-9.24647 0.72867,-12.35393 4.33527,-18.48914 5.39373,-9.17518 12.29919,-15.09873 19.95066,-17.11379 3.36077,-0.88519 40.18876,-1.69512 85.91928,-1.88978 l 80.03728,-0.34058 2.92454,3.61158 c 3.57486,4.41484 3.73381,9.33681 0.45284,14.0211 l -2.47172,3.52885 -77.76247,0 c -82.81745,0 -86.27176,0.29486 -90.23498,7.70013 -0.94358,1.76308 -1.71559,5.44309 -1.71559,8.17774 0,2.73464 0.77201,6.41465 1.71559,8.17773 4.05736,7.5812 5.79343,7.70013 112.46547,7.70013 l 99.99297,0 c 5.82481,0 8.8388,-2.22622 8.90991,-7.65853 l 0.47993,-36.65928 0.47992,-36.65928 11.1079,0 11.10791,0 -0.47333,40.09159 c -0.41954,35.53688 -0.81438,40.77816 -3.4754,46.13551 -4.27303,8.60247 -11.65694,13.64067 -22.62409,15.43677 -5.26493,0.86217 -52.73747,1.50538 -109.33565,1.48125 -92.43249,-0.0397 -100.66397,-0.26151 -108.3701,-2.92375 z"
         id="path3842"
         inkscape:connector-curvature="0"
         sodipodi:nodetypes="cssscsccscsssssssccccsccsc" />
      <path
         sodipodi:nodetypes="cssscsccscsssssssccccsccsc"
         inkscape:connector-curvature="0"
         id="path3836"
         d="m 135.67928,819.09259 c -9.90572,-3.422 -13.59278,-6.505 -19.21429,-16.06681 -3.4631,-5.89037 -4.20185,-9.10103 -4.20185,-18.26144 0,-9.24647 0.72867,-12.35393 4.33527,-18.48914 5.39373,-9.17518 12.29919,-15.09873 19.95066,-17.11379 3.36077,-0.88519 40.18876,-1.69512 85.91928,-1.88978 l 80.03728,-0.34058 2.92454,3.61158 c 3.57486,4.41484 3.73381,9.33681 0.45284,14.0211 l -2.47172,3.52885 -77.76247,0 c -82.81745,0 -86.27176,0.29486 -90.23498,7.70013 -0.94358,1.76308 -1.71559,5.44309 -1.71559,8.17774 0,2.73464 0.77201,6.41465 1.71559,8.17773 4.05736,7.5812 5.79343,7.70013 112.46547,7.70013 l 99.99297,0 c 5.82481,0 8.8388,-2.22622 8.90991,-7.65853 l 0.47993,-36.65928 0.47992,-36.65928 11.1079,0 11.10791,0 -0.47333,40.09159 c -0.41954,35.53688 -0.81438,40.77816 -3.4754,46.13551 -4.27303,8.60247 -11.65694,13.64067 -22.62409,15.43677 -5.26493,0.86217 -52.73747,1.50538 -109.33565,1.48125 -92.43249,-0.0397 -100.66397,-0.26151 -108.3701,-2.92375 z"
         style="fill:#000000" />
      <path
         sodipodi:nodetypes="cssscsccscsssssssccccsccsccsccccscscscccccscscsccsscscscscscscsssscscccsscccssscccscsscccssscscsscsccscscscccccssscss"
         inkscape:connector-curvature="0"
         id="path3844"
         d="m 81.566565,890.82283 c -2.434185,-0.84091 -3.340227,-1.59851 -4.721631,-3.94818 -0.851008,-1.44747 -1.032544,-2.23644 -1.032544,-4.48748 0,-2.27219 0.179059,-3.0358 1.06533,-4.54344 1.325429,-2.25466 3.022344,-3.71029 4.902584,-4.20546 0.82586,-0.21752 9.875797,-0.41655 21.113416,-0.46438 l 19.66798,-0.0837 0.71866,0.8875 c 0.87848,1.08489 0.91754,2.29439 0.11131,3.44549 l -0.60737,0.86716 -19.10901,0 c -20.35117,0 -21.200016,0.0725 -22.17392,1.8922 -0.231868,0.43324 -0.42158,1.33755 -0.42158,2.00955 0,0.67199 0.189712,1.5763 0.42158,2.00956 0.997038,1.86297 1.423651,1.8922 27.63675,1.8922 l 24.57181,0 c 0.96238,0 2.17688,-0.91967 2.18948,-1.88198 l 0.11793,-9.00849 0.11793,-9.00848 2.72961,0 2.72961,0 -0.11632,9.85193 c -0.10305,8.73267 -0.20011,10.02063 -0.85402,11.33712 -1.05004,2.11393 -2.86453,3.352 -5.55955,3.79336 -1.29377,0.21186 -12.95946,0.36994 -26.86763,0.36401 -22.713937,-0.0102 -24.736702,-0.0642 -26.630371,-0.71848 z m 63.570045,-8.72829 c 0.1269,-8.63642 0.21103,-9.6186 0.96452,-11.25987 1.1093,-2.41625 3.00123,-3.79426 5.84988,-4.26081 1.30646,-0.21393 14.12682,-0.37541 29.90923,-0.37671 l 27.62265,-0.003 1.00126,1.00129 c 0.80986,0.80986 0.95468,1.23885 0.75737,2.24353 -0.13417,0.68319 -0.53847,1.46166 -0.89853,1.7299 -0.50941,0.37957 -6.87126,0.48773 -28.69198,0.48773 -29.69487,0 -29.80961,0.006 -30.48753,1.77326 -0.1333,0.34745 -0.24237,4.56786 -0.24237,9.37872 l 0,8.74702 -2.96175,0 -2.96177,0 0.13902,-9.46175 z m 78.71625,9.06755 c -5.77777,-0.97791 -8.74044,-5.1535 -8.71759,-12.2865 0.0102,-3.13977 0.14391,-3.78724 1.26418,-6.11534 1.36319,-2.83286 2.81551,-4.2906 5.53354,-5.5541 1.72519,-0.80193 2.20148,-0.81618 27.31226,-0.81618 l 25.55648,0 1.87909,0.9252 c 2.72861,1.3434 3.97354,3.38735 3.97354,6.52357 0,2.07445 -0.17269,2.6787 -1.17052,4.0954 -0.64379,0.91401 -1.8895,2.04143 -2.76829,2.50531 -1.55551,0.82113 -2.1194,0.8504 -21.32706,1.10657 -22.69451,0.30273 -22.5096,0.32499 -22.52458,-2.70751 -0.0128,-2.58118 -0.70942,-2.49906 21.19173,-2.49906 19.25044,0 19.79122,-0.0206 20.55102,-0.78035 0.42918,-0.42919 0.78033,-1.13151 0.78033,-1.56071 0,-0.42918 -0.35115,-1.1315 -0.78033,-1.56069 -0.76355,-0.76357 -1.2947,-0.78016 -24.67859,-0.77176 -22.45506,0.009 -23.99473,0.0523 -25.49616,0.73426 -2.46961,1.12155 -3.47615,3.05839 -3.46659,6.67048 0.009,3.67899 0.76291,5.23019 3.04201,6.26489 1.55207,0.70469 2.94738,0.74156 28.37005,0.74968 30.06441,0.009 28.47207,-0.14592 28.47207,2.78184 0,2.77461 0.86732,2.69543 -28.95795,2.64331 -14.43851,-0.0255 -27.05592,-0.18198 -28.03864,-0.34831 z m 70.06747,-0.006 c -2.30115,-0.46442 -3.40753,-0.95893 -4.83791,-2.16251 -6.15879,-5.18231 -5.48895,-17.86038 1.12187,-21.23294 0.81172,-0.41413 2.59444,-0.93443 3.96156,-1.15629 3.18785,-0.51725 46.89743,-0.54367 50.03263,-0.0303 2.83233,0.46388 4.54977,1.71384 5.76376,4.19497 0.87821,1.79483 0.91222,2.2112 0.91785,11.22815 l 0.006,9.36422 -2.82878,0.11462 -2.82877,0.11463 0,-8.58257 c 0,-9.22725 -0.17452,-10.22457 -1.91548,-10.9457 -0.72213,-0.2991 -8.20757,-0.39533 -24.82307,-0.31901 -21.8832,0.10045 -23.8902,0.16451 -25.05061,0.79866 -1.6927,0.9251 -2.52928,2.6872 -2.72752,5.74536 -0.2214,3.414 0.87856,5.66289 3.38887,6.92873 1.72977,0.87228 1.85516,0.8779 19.60629,0.8779 17.34517,0 17.8881,0.0225 18.64575,0.78035 0.4335,0.43353 0.78034,1.30057 0.78034,1.95088 0,0.6503 -0.34684,1.51735 -0.78034,1.95088 -0.75913,0.75911 -1.27092,0.77917 -18.82596,0.73759 -9.92508,-0.0234 -18.74792,-0.18448 -19.60631,-0.35768 z m 62.23293,0.12966 c -1.43498,-0.51284 -1.56069,-1.27693 -1.56069,-9.48734 0,-9.55188 0.34464,-11.25473 2.71018,-13.39188 0.85208,-0.76977 2.19666,-1.52699 3.02165,-1.70163 0.81752,-0.17307 13.42576,-0.31468 28.01831,-0.31468 l 26.53191,0 1.73689,0.97544 c 1.27929,0.71844 2.02463,1.52692 2.82877,3.06843 l 1.09188,2.09297 0,8.56492 c 0,5.03242 -0.16287,8.86931 -0.39489,9.30287 -0.56237,1.05076 -2.87627,1.40897 -4.06598,0.6294 -0.94548,-0.61948 -0.94591,-0.62295 -1.07128,-9.00771 -0.12146,-8.12472 -0.15326,-8.41583 -1.01356,-9.2759 -0.87738,-0.87723 -1.02483,-0.88932 -12.19295,-1.0024 l -11.30482,-0.11443 0,9.01659 c 0,5.33706 -0.16114,9.3177 -0.3949,9.75445 -0.56929,1.06378 -2.87722,1.40832 -4.09383,0.61118 l -0.97372,-0.63801 0,-9.37185 0,-9.37185 -11.46983,0.11416 c -10.49934,0.10452 -11.53693,0.17499 -12.26312,0.83271 -0.74263,0.67258 -0.8013,1.25445 -0.91824,9.10668 -0.12322,8.27457 -0.13737,8.39826 -1.04601,9.13343 -0.90101,0.72891 -2.00305,0.89357 -3.17577,0.47445 z"
         style="fill:#ffffff;fill-opacity:0.50980386;filter:url(#filter3858)" />
      <path
         style="fill:#000000;fill-opacity:1"
         d="m 81.566565,888.82283 c -2.434185,-0.84091 -3.340227,-1.59851 -4.721631,-3.94818 -0.851008,-1.44747 -1.032544,-2.23644 -1.032544,-4.48748 0,-2.27219 0.179059,-3.0358 1.06533,-4.54344 1.325429,-2.25466 3.022344,-3.71029 4.902584,-4.20546 0.82586,-0.21752 9.875797,-0.41655 21.113416,-0.46438 l 19.66798,-0.0837 0.71866,0.8875 c 0.87848,1.08489 0.91754,2.29439 0.11131,3.44549 l -0.60737,0.86716 -19.10901,0 c -20.35117,0 -21.200016,0.0725 -22.17392,1.8922 -0.231868,0.43324 -0.42158,1.33755 -0.42158,2.00955 0,0.67199 0.189712,1.5763 0.42158,2.00956 0.997038,1.86297 1.423651,1.8922 27.63675,1.8922 l 24.57181,0 c 0.96238,0 2.17688,-0.91967 2.18948,-1.88198 l 0.11793,-9.00849 0.11793,-9.00848 2.72961,0 2.72961,0 -0.11632,9.85193 c -0.10305,8.73267 -0.20011,10.02063 -0.85402,11.33712 -1.05004,2.11393 -2.86453,3.352 -5.55955,3.79336 -1.29377,0.21186 -12.95946,0.36994 -26.86763,0.36401 -22.713937,-0.0102 -24.736702,-0.0642 -26.630371,-0.71848 z m 63.570045,-8.72829 c 0.1269,-8.63642 0.21103,-9.6186 0.96452,-11.25987 1.1093,-2.41625 3.00123,-3.79426 5.84988,-4.26081 1.30646,-0.21393 14.12682,-0.37541 29.90923,-0.37671 l 27.62265,-0.003 1.00126,1.00129 c 0.80986,0.80986 0.95468,1.23885 0.75737,2.24353 -0.13417,0.68319 -0.53847,1.46166 -0.89853,1.7299 -0.50941,0.37957 -6.87126,0.48773 -28.69198,0.48773 -29.69487,0 -29.80961,0.006 -30.48753,1.77326 -0.1333,0.34745 -0.24237,4.56786 -0.24237,9.37872 l 0,8.74702 -2.96175,0 -2.96177,0 0.13902,-9.46175 z m 78.71625,9.06755 c -5.77777,-0.97791 -8.74044,-5.1535 -8.71759,-12.2865 0.0102,-3.13977 0.14391,-3.78724 1.26418,-6.11534 1.36319,-2.83286 2.81551,-4.2906 5.53354,-5.5541 1.72519,-0.80193 2.20148,-0.81618 27.31226,-0.81618 l 25.55648,0 1.87909,0.9252 c 2.72861,1.3434 3.97354,3.38735 3.97354,6.52357 0,2.07445 -0.17269,2.6787 -1.17052,4.0954 -0.64379,0.91401 -1.8895,2.04143 -2.76829,2.50531 -1.55551,0.82113 -2.1194,0.8504 -21.32706,1.10657 -22.69451,0.30273 -22.5096,0.32499 -22.52458,-2.70751 -0.0128,-2.58118 -0.70942,-2.49906 21.19173,-2.49906 19.25044,0 19.79122,-0.0206 20.55102,-0.78035 0.42918,-0.42919 0.78033,-1.13151 0.78033,-1.56071 0,-0.42918 -0.35115,-1.1315 -0.78033,-1.56069 -0.76355,-0.76357 -1.2947,-0.78016 -24.67859,-0.77176 -22.45506,0.009 -23.99473,0.0523 -25.49616,0.73426 -2.46961,1.12155 -3.47615,3.05839 -3.46659,6.67048 0.009,3.67899 0.76291,5.23019 3.04201,6.26489 1.55207,0.70469 2.94738,0.74156 28.37005,0.74968 30.06441,0.009 28.47207,-0.14592 28.47207,2.78184 0,2.77461 0.86732,2.69543 -28.95795,2.64331 -14.43851,-0.0255 -27.05592,-0.18198 -28.03864,-0.34831 z m 70.06747,-0.006 c -2.30115,-0.46442 -3.40753,-0.95893 -4.83791,-2.16251 -6.15879,-5.18231 -5.48895,-17.86038 1.12187,-21.23294 0.81172,-0.41413 2.59444,-0.93443 3.96156,-1.15629 3.18785,-0.51725 46.89743,-0.54367 50.03263,-0.0303 2.83233,0.46388 4.54977,1.71384 5.76376,4.19497 0.87821,1.79483 0.91222,2.2112 0.91785,11.22815 l 0.006,9.36422 -2.82878,0.11462 -2.82877,0.11463 0,-8.58257 c 0,-9.22725 -0.17452,-10.22457 -1.91548,-10.9457 -0.72213,-0.2991 -8.20757,-0.39533 -24.82307,-0.31901 -21.8832,0.10045 -23.8902,0.16451 -25.05061,0.79866 -1.6927,0.9251 -2.52928,2.6872 -2.72752,5.74536 -0.2214,3.414 0.87856,5.66289 3.38887,6.92873 1.72977,0.87228 1.85516,0.8779 19.60629,0.8779 17.34517,0 17.8881,0.0225 18.64575,0.78035 0.4335,0.43353 0.78034,1.30057 0.78034,1.95088 0,0.6503 -0.34684,1.51735 -0.78034,1.95088 -0.75913,0.75911 -1.27092,0.77917 -18.82596,0.73759 -9.92508,-0.0234 -18.74792,-0.18448 -19.60631,-0.35768 z m 62.23293,0.12966 c -1.43498,-0.51284 -1.56069,-1.27693 -1.56069,-9.48734 0,-9.55188 0.34464,-11.25473 2.71018,-13.39188 0.85208,-0.76977 2.19666,-1.52699 3.02165,-1.70163 0.81752,-0.17307 13.42576,-0.31468 28.01831,-0.31468 l 26.53191,0 1.73689,0.97544 c 1.27929,0.71844 2.02463,1.52692 2.82877,3.06843 l 1.09188,2.09297 0,8.56492 c 0,5.03242 -0.16287,8.86931 -0.39489,9.30287 -0.56237,1.05076 -2.87627,1.40897 -4.06598,0.6294 -0.94548,-0.61948 -0.94591,-0.62295 -1.07128,-9.00771 -0.12146,-8.12472 -0.15326,-8.41583 -1.01356,-9.2759 -0.87738,-0.87723 -1.02483,-0.88932 -12.19295,-1.0024 l -11.30482,-0.11443 0,9.01659 c 0,5.33706 -0.16114,9.3177 -0.3949,9.75445 -0.56929,1.06378 -2.87722,1.40832 -4.09383,0.61118 l -0.97372,-0.63801 0,-9.37185 0,-9.37185 -11.46983,0.11416 c -10.49934,0.10452 -11.53693,0.17499 -12.26312,0.83271 -0.74263,0.67258 -0.8013,1.25445 -0.91824,9.10668 -0.12322,8.27457 -0.13737,8.39826 -1.04601,9.13343 -0.90101,0.72891 -2.00305,0.89357 -3.17577,0.47445 z"
         id="path3838"
         inkscape:connector-curvature="0"
         sodipodi:nodetypes="cssscsccscsssssssccccsccsccsccccscscscccccscscsccsscscscscscscsssscscccsscccssscccscsscccssscscsscsccscscscccccssscss" />
      <path
         sodipodi:nodetypes="ccccccccc"
         inkscape:connector-curvature="0"
         id="path3864"
         transform="translate(0,552.36218)"
         d="m 59.188,151.25 3.1245,221 2,-2 -3.125,-218 375.3125,0 -3.09375,218 2,2 3.125,-221 z"
         style="fill:#232323;fill-opacity:1;stroke:none" />
      <path
         sodipodi:nodetypes="ccccc"
         inkscape:connector-curvature="0"
         id="path3878"
         transform="translate(0,552.36218)"
         d="m 433.40625,370.25 -369.09375,0 -2,2 373.09375,0 z"
         style="fill:#b6b6b6;fill-opacity:1;stroke:none" />
      <path
         sodipodi:nodetypes="cccccccccc"
         inkscape:connector-curvature="0"
         id="path3903"
         transform="translate(0,552.36218)"
         d="m 462.21349,127.00526 -3.96875,268.48948 -418.770733,0 -3.96875,-268.48948 z M 32.75,124.25 l 4,274 424.21875,0 4,-274 z"
         style="fill:#ffffff;fill-opacity:0.43137255;stroke:none" />
      <rect
         style="fill:#555555;fill-opacity:1;stroke:url(#linearGradient3966);stroke-width:3.35882831;stroke-miterlimit:4;stroke-opacity:1;stroke-dasharray:none"
         id="rect3914"
         width="79.909355"
         height="8.9300499"
         x="-523.77563"
         y="440.79425"
         ry="4.4650249"
         inkscape:transform-center-x="35.90649"
         inkscape:transform-center-y="-20.730537"
         transform="matrix(-0.8660254,-0.5,-0.5,0.8660254,0,0)" />
    </g>
  </g>
</svg>
