<?xml version="1.0" encoding="UTF-8" standalone="no"?>
<!-- Created with Inkscape (http://www.inkscape.org/) -->

<svg
   xmlns:dc="http://purl.org/dc/elements/1.1/"
   xmlns:cc="http://creativecommons.org/ns#"
   xmlns:rdf="http://www.w3.org/1999/02/22-rdf-syntax-ns#"
   xmlns:svg="http://www.w3.org/2000/svg"
   xmlns="http://www.w3.org/2000/svg"
   xmlns:xlink="http://www.w3.org/1999/xlink"
   xmlns:sodipodi="http://sodipodi.sourceforge.net/DTD/sodipodi-0.dtd"
   xmlns:inkscape="http://www.inkscape.org/namespaces/inkscape"
   inkscape:export-ydpi="240"
   inkscape:export-xdpi="240"
   inkscape:export-filename="C:\Users\Stephan\Desktop\ic_web.png"
   width="108"
   height="108"
   viewBox="0 0 107.99999 108"
   id="svg3371"
   version="1.1"
   inkscape:version="0.91 r13725"
   sodipodi:docname="ic_launcher_bg.svg">
  <sodipodi:namedview
     id="base"
     pagecolor="#ffffff"
     bordercolor="#666666"
     borderopacity="1.0"
     inkscape:pageopacity="0.0"
     inkscape:pageshadow="2"
     inkscape:zoom="5.6568542"
     inkscape:cx="30.985607"
     inkscape:cy="40.744361"
     inkscape:document-units="px"
     inkscape:current-layer="layer11"
     showgrid="false"
     units="px"
     borderlayer="true"
     inkscape:window-width="1920"
     inkscape:window-height="1017"
     inkscape:window-x="4472"
     inkscape:window-y="-8"
     inkscape:window-maximized="1" />
  <defs
     id="defs3373">
    <linearGradient
       inkscape:collect="always"
       id="linearGradient7293">
      <stop
         style="stop-color:#000000;stop-opacity:1;"
         offset="0"
         id="stop7295" />
      <stop
         style="stop-color:#000000;stop-opacity:0;"
         offset="1"
         id="stop7297" />
    </linearGradient>
    <clipPath
       clipPathUnits="userSpaceOnUse"
       id="clipPath11216">
      <rect
         style="display:inline;opacity:1;fill:#333333;fill-opacity:1"
         id="rect11218"
         width="175"
         height="127"
         x="8.4999924"
         y="32.5"
         ry="3.96875" />
    </clipPath>
    <filter
       inkscape:collect="always"
       style="color-interpolation-filters:sRGB"
       id="filter4259"
       x="-0.010363631"
       width="1.0207273"
       y="-0.014249946"
       height="1.0284998">
      <feGaussianBlur
         inkscape:collect="always"
         stdDeviation="0.76000002"
         id="feGaussianBlur4261" />
    </filter>
    <linearGradient
       inkscape:collect="always"
       xlink:href="#linearGradient7293"
       id="linearGradient7299"
       x1="23.25"
       y1="45.75"
       x2="181"
       y2="152.75"
       gradientUnits="userSpaceOnUse" />
    <clipPath
       clipPathUnits="userSpaceOnUse"
       id="clipPath7422">
      <rect
         rx="12"
         ry="12"
         y="31.646467"
         x="7.6464539"
         height="128"
         width="176"
         id="rect7424"
         style="opacity:1;fill:#424242;fill-opacity:1" />
    </clipPath>
  </defs>
  <metadata
     id="metadata3376">
    <rdf:RDF>
      <cc:Work
         rdf:about="">
        <dc:format>image/svg+xml</dc:format>
        <dc:type
           rdf:resource="http://purl.org/dc/dcmitype/StillImage" />
        <dc:title></dc:title>
      </cc:Work>
    </rdf:RDF>
  </metadata>
  <g
     inkscape:groupmode="layer"
     id="layer9"
     inkscape:label="Background Shadow"
     style="display:none"
     transform="translate(0,-84)">
    <rect
       style="display:inline;opacity:0.4;fill:#212121;fill-opacity:1;filter:url(#filter4259)"
       id="rect11152"
       width="175.71397"
       height="128.00049"
       x="10.531316"
       y="894.29718"
       ry="11.999909"
       rx="12"
       transform="matrix(1,0,-0.00274386,0.99999624,7.6293945e-6,-860.3622)" />
  </g>
  <g
     style="display:inline;opacity:1"
     transform="translate(0,-944.3622)"
     id="layer1"
     inkscape:groupmode="layer"
     inkscape:label="Background" />
  <g
     inkscape:groupmode="layer"
     id="layer11"
     inkscape:label="TV Shadow"
     style="display:none"
     transform="translate(0,36)">
    <g
       style="display:inline"
       id="g3604"
       transform="matrix(0.96186075,0,0,0.96186075,2.1767169,-1.032415)">
      <path
         transform="matrix(0.46022651,0,0,0.46022651,9.980966,-24.019037)"
         clip-path="url(#clipPath7422)"
         inkscape:connector-curvature="0"
         id="rect4151-3"
         d="m 28,43.5 c -3.811649,0 -7,3.142401 -7,6.962891 l 0,85.179689 c 0,3.48536 2.656098,6.39717 6.015625,6.88281 0.511038,0.2071 1.050251,0.35278 1.609375,0.43359 0.505274,0.20404 1.039558,0.34505 1.591797,0.42579 0.504797,0.20405 1.038121,0.34675 1.589844,0.42773 0.504737,0.20366 1.038263,0.34514 1.589843,0.42578 0.499578,0.20057 1.026906,0.34166 1.572266,0.42188 0.497667,0.19963 1.021353,0.34162 1.564453,0.42187 0.494778,0.19808 1.016985,0.33782 1.556641,0.41797 0.493934,0.19758 1.014091,0.33594 1.552734,0.41602 0.49023,0.19544 1.006808,0.33425 1.541016,0.41406 0.488054,0.19438 1.001561,0.33033 1.533203,0.41015 0.485284,0.19299 0.995071,0.33037 1.523437,0.41016 0.484004,0.19228 0.992689,0.32849 1.519532,0.4082 0.480985,0.19058 0.98652,0.32481 1.509765,0.4043 0.480644,0.19015 0.985018,0.327 1.507813,0.40625 0.474377,0.18677 0.972915,0.31954 1.488281,0.39844 0.474983,0.18708 0.974153,0.32147 1.490234,0.40039 0.4717,0.18513 0.966354,0.31793 1.478516,0.39648 0.466079,0.18245 0.955359,0.31407 1.460937,0.39258 0.468452,0.1837 0.960373,0.31589 1.46875,0.39453 0.463892,0.18107 0.950166,0.31246 1.453126,0.39063 0.461566,0.17986 0.945087,0.30867 1.445312,0.38672 0.460539,0.17918 0.942415,0.30886 1.441406,0.38671 0.456237,0.17684 0.93382,0.30728 1.427735,0.38477 0.45369,0.17557 0.928987,0.30348 1.419921,0.38086 0.451577,0.1746 0.923633,0.30154 1.41211,0.37891 0.44952,0.17349 0.92019,0.29975 1.40625,0.37695 0.446879,0.17219 0.913507,0.29793 1.396484,0.375 0.443697,0.17067 0.907446,0.29609 1.386719,0.37305 0.44295,0.17019 0.90638,0.29427 1.384766,0.37109 0.439517,0.1683 0.898693,0.29269 1.373047,0.36914 0.437117,0.16707 0.893681,0.29092 1.365234,0.36719 0.435303,0.16606 0.88995,0.28918 1.359375,0.36523 0.431324,0.1641 0.880905,0.28553 1.345703,0.36133 0.430442,0.16371 0.879969,0.28359 1.34375,0.35938 0.42699,0.1619 0.872272,0.28196 1.332031,0.35742 0.425281,0.16105 0.868396,0.28209 1.326172,0.35742 0.422352,0.15954 0.862036,0.27651 1.316406,0.35156 0.420775,0.1587 0.858015,0.27865 1.310547,0.35352 0.417324,0.15692 0.852254,0.27312 1.300782,0.34765 0.415327,0.15593 0.846751,0.2733 1.292968,0.34766 0.412318,0.1545 0.840454,0.27154 1.283203,0.3457 0.409505,0.15323 0.835872,0.26778 1.275391,0.3418 0.407918,0.15244 0.831844,0.26792 1.269531,0.3418 0.406213,0.1515 0.827967,0.26622 1.263672,0.33984 0.401709,0.14927 0.819486,0.2608 1.25,0.33399 0.401318,0.14902 0.81799,0.26283 1.248047,0.33593 0.397786,0.1473 0.810334,0.25732 1.236328,0.33008 0.396202,0.14647 0.806303,0.25948 1.230469,0.33203 0.392365,0.14461 0.798986,0.25399 1.21875,0.32617 0.389799,0.1435 0.794097,0.25414 1.210937,0.32618 0.38803,0.14262 0.790267,0.25237 1.205078,0.32421 0.384507,0.14106 0.782562,0.24871 1.19336,0.32032 0.384418,0.14091 0.782678,0.24881 1.193358,0.32031 0.381,0.13914 0.77489,0.24734 1.18164,0.31836 0.37705,0.1373 0.76767,0.24187 1.16992,0.3125 0.37723,0.13727 0.76749,0.24391 1.16993,0.31445 0.37112,0.13442 0.75489,0.23868 1.15039,0.3086 0.37058,0.13435 0.75353,0.23855 1.14843,0.30859 0.36871,0.13341 0.74982,0.23686 1.14258,0.30664 0.3653,0.13181 0.74197,0.23529 1.13086,0.30469 0.3636,0.13099 0.73999,0.2316 1.12695,0.30078 0.36032,0.12941 0.73201,0.23202 1.11524,0.30078 0.35883,0.12867 0.72979,0.23029 1.11133,0.29883 0.35491,0.12686 0.72054,0.22685 1.09765,0.29492 0.3536,0.12626 0.71813,0.22504 1.09375,0.29297 0.34999,0.12464 0.71048,0.22348 1.08203,0.29101 0.34819,0.12386 0.70666,0.22171 1.07618,0.28907 0.34701,0.12321 0.70408,0.22195 1.07226,0.28906 0.34225,0.12097 0.69579,0.21674 1.0586,0.2832 0.34078,0.12032 0.69157,0.21692 1.05273,0.28321 0.33845,0.11925 0.68639,0.21526 1.04492,0.28125 0.33276,0.1169 0.67518,0.20992 1.02735,0.27539 0.33524,0.11801 0.6802,0.21156 1.03515,0.27734 0.33115,0.11602 0.67114,0.21029 1.02149,0.27539 0.32797,0.11457 0.66493,0.20487 1.01171,0.26953 0.32449,0.11316 0.6571,0.2052 1,0.26953 0.32461,0.11312 0.65894,0.20528 1.00196,0.26953 0.32061,0.11115 0.64975,0.2021 0.98828,0.26563 0.31695,0.10966 0.6421,0.19857 0.97656,0.26172 0.31631,0.10934 0.64087,0.19868 0.97461,0.26172 0.31279,0.10781 0.63307,0.1972 0.96289,0.25976 0.30766,0.10582 0.62312,0.19183 0.94727,0.25391 0.30954,0.10668 0.62688,0.19347 0.95312,0.25586 0.3059,0.10492 0.61924,0.19221 0.94141,0.2539 0.3028,0.10355 0.61291,0.18878 0.93164,0.25 0.29963,0.10226 0.60666,0.18526 0.92187,0.2461 0.29923,0.10203 0.60516,0.18731 0.91993,0.24805 0.29502,0.10012 0.5981,0.18412 0.9082,0.24414 0.2917,0.0988 0.59005,0.18064 0.89648,0.24023 0.29109,0.0985 0.58878,0.18077 0.89454,0.24023 0.2875,0.097 0.581,0.17934 0.88281,0.23829 0.28246,0.0951 0.57091,0.17402 0.86719,0.23242 0.28437,0.0959 0.57466,0.17565 0.87304,0.23437 0.28007,0.094 0.56575,0.17446 0.85938,0.23242 0.27683,0.0927 0.55954,0.16904 0.84961,0.22657 0.27463,0.0918 0.55609,0.16935 0.84375,0.22656 0.27198,0.0907 0.54923,0.1678 0.83398,0.22461 0.27191,0.0906 0.54932,0.16791 0.83398,0.22461 0.2669,0.0884 0.53921,0.16297 0.81836,0.21875 0.26456,0.0875 0.53396,0.16332 0.81055,0.21875 0.25843,0.0853 0.52305,0.15816 0.79297,0.21289 0.2615,0.0866 0.52945,0.15959 0.80273,0.21484 0.2566,0.0844 0.5192,0.15857 0.78711,0.21289 0.25455,0.0836 0.51363,0.15504 0.7793,0.20899 0.25447,0.0834 0.51373,0.15521 0.7793,0.20898 0.24584,0.0801 0.49576,0.15065 0.75195,0.20313 0.24768,0.0809 0.49962,0.15023 0.75781,0.20312 0.24211,0.0788 0.48808,0.14712 0.74024,0.19922 0.24207,0.0789 0.49006,0.14705 0.74218,0.19922 0.24024,0.078 0.48426,0.14558 0.73438,0.19727 0.23762,0.0768 0.4793,0.14422 0.72656,0.19531 0.22618,0.0728 0.45647,0.13403 0.69141,0.18359 0.23587,0.0767 0.47527,0.14393 0.7207,0.19531 0.22495,0.0725 0.45388,0.13411 0.6875,0.1836 0.22611,0.0731 0.45653,0.13571 0.69141,0.18554 0.22063,0.0712 0.44484,0.13258 0.67383,0.18165 0.21905,0.0708 0.44261,0.12873 0.66992,0.17773 0.21682,0.0701 0.43914,0.12898 0.66406,0.17773 0.21357,0.0691 0.43091,0.12744 0.65234,0.17578 0.21668,0.0701 0.43735,0.12894 0.66211,0.17774 0.20593,0.0661 0.41569,0.12305 0.62891,0.16992 0.20656,0.0666 0.41889,0.1227 0.63281,0.16992 0.20524,0.0661 0.41446,0.12099 0.62696,0.16797 0.20394,0.0655 0.41193,0.1213 0.62304,0.16797 0.19488,0.0623 0.39429,0.11311 0.59571,0.1582 0.19509,0.0628 0.39402,0.11464 0.5957,0.16016 0.19252,0.062 0.38895,0.113 0.58789,0.1582 0.19054,0.0614 0.3852,0.11128 0.58203,0.15625 0.18799,0.0606 0.38009,0.10971 0.57422,0.1543 0.19054,0.0614 0.3852,0.11128 0.58203,0.15625 0.18156,0.058 0.36742,0.1053 0.55469,0.14844 0.17386,0.0557 0.35213,0.0986 0.53125,0.14062 0.18327,0.0593 0.37142,0.10827 0.56054,0.15235 0.17327,0.0555 0.35082,0.0987 0.5293,0.14062 0.17855,0.0573 0.36084,0.10553 0.54492,0.14844 0.1623,0.0516 0.32923,0.0911 0.4961,0.13086 0.16831,0.0541 0.34042,0.0973 0.51367,0.13867 0.16442,0.0528 0.33281,0.0942 0.50195,0.13477 0.16697,0.0536 0.33794,0.0957 0.50977,0.13671 0.15543,0.0495 0.31497,0.0883 0.47461,0.12696 0.15428,0.0494 0.31226,0.0883 0.4707,0.12695 0.15736,0.0506 0.31878,0.0895 0.48047,0.12891 0.14996,0.0479 0.30509,0.0853 0.45898,0.12304 0.1498,0.0479 0.30332,0.0852 0.45703,0.12305 0.14591,0.0466 0.29569,0.0821 0.44532,0.11914 0.14275,0.0456 0.28922,0.0808 0.43554,0.11719 0.14233,0.0455 0.28967,0.0808 0.43555,0.11719 0.13938,0.0444 0.283,0.0776 0.42578,0.11328 0.13188,0.0419 0.26742,0.0733 0.40235,0.10742 0.13901,0.0445 0.28142,0.0794 0.42382,0.11523 0.12533,0.0397 0.25473,0.0689 0.38282,0.10157 0.12987,0.0415 0.26364,0.0716 0.39648,0.10547 0.12328,0.0392 0.251,0.0692 0.37695,0.10156 0.12362,0.0394 0.25065,0.069 0.37696,0.10156 0.12294,0.0391 0.24939,0.0692 0.375,0.10156 0.11652,0.0369 0.23656,0.0649 0.35547,0.0957 0.11454,0.0363 0.23275,0.0633 0.34961,0.0937 0.10945,0.0347 0.22241,0.0605 0.33398,0.0898 0.10978,0.0349 0.22402,0.0603 0.33594,0.0898 0.10502,0.0334 0.21334,0.0575 0.32031,0.0859 0.10755,0.0343 0.21853,0.0588 0.32812,0.0879 0.0979,0.031 0.1992,0.0533 0.29883,0.0801 0.10189,0.0324 0.20683,0.0562 0.31055,0.084 0.0945,0.0299 0.19301,0.0502 0.28906,0.0762 0.0959,0.0304 0.1954,0.0537 0.29297,0.0801 0.0899,0.0284 0.18404,0.0475 0.27539,0.0723 0.0891,0.0282 0.18095,0.0496 0.27149,0.0742 0.085,0.0269 0.17344,0.0447 0.25976,0.0684 0.0813,0.0257 0.16554,0.0436 0.24805,0.0664 0.0859,0.0272 0.17452,0.0464 0.26172,0.0703 0.0717,0.0225 0.14609,0.0383 0.21875,0.0586 0.0788,0.025 0.16031,0.0422 0.24023,0.0644 0.068,0.0215 0.13821,0.0373 0.20703,0.0566 0.0737,0.0234 0.14994,0.0396 0.22461,0.0605 0.0673,0.0212 0.13701,0.0355 0.20508,0.0547 0.066,0.0208 0.13437,0.0358 0.20117,0.0547 0.0596,0.0188 0.12145,0.0316 0.18164,0.0488 0.0588,0.0186 0.12023,0.0298 0.17969,0.0469 0.0553,0.0175 0.11213,0.0307 0.16797,0.0469 0.0596,0.0189 0.12141,0.0315 0.18164,0.0488 0.0467,0.0147 0.0955,0.0234 0.14258,0.0371 0.0544,0.0172 0.11106,0.029 0.16601,0.0449 10e-4,4.4e-4 0.003,0.002 0.004,0.002 0.0405,0.0117 0.0823,0.0203 0.12305,0.0312 0.0411,0.013 0.0836,0.0229 0.125,0.0352 0.0461,0.0146 0.0941,0.0234 0.14062,0.0371 0.003,8.7e-4 0.005,0.003 0.008,0.004 0.0348,0.0102 0.0705,0.0177 0.10547,0.0273 0.0512,0.0161 0.10459,0.0261 0.15625,0.041 0.0187,0.006 0.0379,0.0101 0.0566,0.0156 0.003,8.1e-4 0.005,0.001 0.008,0.002 0.0257,0.008 0.0524,0.0122 0.0781,0.0195 0.0265,0.008 0.0535,0.0154 0.0801,0.0234 0.0525,0.0166 0.10907,0.0276 0.16211,0.043 0.0141,0.004 0.0288,0.007 0.043,0.0117 0.0359,0.0113 0.0732,0.0185 0.10937,0.0293 0.011,0.003 0.0222,0.006 0.0332,0.01 0.003,8.1e-4 0.005,0.001 0.008,0.002 10e-4,3.7e-4 0.003,-3.7e-4 0.004,0 0.003,7.9e-4 0.005,0.001 0.008,0.002 0.011,0.003 0.0222,0.006 0.0332,0.01 0,0 0.002,0 0.002,0 0.005,0.001 0.009,0.003 0.0137,0.004 0.001,4.3e-4 0.003,0.002 0.004,0.002 0.0772,0.0229 0.15619,0.0403 0.23438,0.0605 0.0788,0.0204 0.15654,0.0429 0.23632,0.0606 0.0532,0.0125 0.1046,0.0298 0.15821,0.041 0.01,0.002 0.0194,0.006 0.0293,0.008 0.001,2.5e-4 0.003,-2.6e-4 0.004,0 0.15672,0.0325 0.3165,0.0526 0.47656,0.0742 0.0708,0.01 0.13952,0.0259 0.21094,0.0332 0.001,1.3e-4 0.003,-1.3e-4 0.004,0 0.0231,0.002 0.0471,0.002 0.0703,0.004 0.21013,0.0195 0.42219,0.0332 0.63672,0.0332 l 18.60547,0 0,0.15625 0.58203,0 0,0.15625 0.57422,0 0,0.1543 0.56445,0 0,0.15234 0.55859,0 0,0.14844 0.55078,0 0,0.14843 0.54102,0 0,0.14454 0.53516,0 0,0.14453 0.52539,0 0,0.14062 0.51758,0 0,0.13867 0.50976,0 0,0.13672 0.50195,0 0,0.13477 0.49414,0 0,0.13281 0.48633,0 0,0.12891 0.47657,0 0,0.1289 0.4707,0 0,0.12696 0.46094,0 0,0.12304 0.45507,0 0,0.1211 0.44532,0 0,0.11914 0.4375,0 0,0.11719 0.42968,0 0,0.11523 0.42188,0 0,0.11328 0.41211,0 0,0.11133 0.40625,0 0,0.10937 0.39648,0 0,0.10547 0.39063,0 0,0.10547 0.38086,0 0,0.10156 0.37304,0 0,0.10157 0.36524,0 0,0.0977 0.35742,0 0,0.0957 0.34961,0 0,0.0937 0.3418,0 0,0.0918 0.33398,0 0,0.0879 0.32422,0 0,0.0879 0.31641,0 0,0.0859 0.31054,0 0,0.082 0.30078,0 0,0.0801 0.29297,0 0,0.0801 0.28516,0 0,0.0762 0.27734,0 0,0.0742 0.26758,0 0,0.0723 0.26172,0 0,0.0684 0.25391,0 0,0.0684 0.24414,0 0,0.0664 0.23632,0 0,0.0625 0.22852,0 0,0.0625 0.2207,0 0,0.0586 0.21289,0 0,0.0566 0.20508,0 0,0.0547 0.19727,0 0,0.0527 0.18945,0 0,0.0508 0.17969,0 0,0.0488 0.17187,0 0,0.0469 0.16602,0 0,0.043 0.15625,0 0,0.043 0.14844,0 0,0.0391 0.14062,0 0,0.0391 0.13281,0 0,0.0352 0.12305,0 0,0.0332 0.11719,0 0,0.0312 0.10937,0 0,0.0293 0.0996,0 0,0.0273 0.0918,0 0,0.0234 0.084,0 0,0.0234 0.0762,0 0,0.0195 0.0684,0 0,0.0195 0.0605,0 0,0.0156 0.0527,0 0,0.0137 0.0449,0 0,0.0117 0.0352,0 0,0.01 0.0293,0 0,0.008 0.0195,0 0,0.006 0.0117,0 0,0.002 0.004,0 0,0.002 56,0 0,-5.89453 40,0 c 0.23691,0 0.47164,-0.0134 0.70312,-0.0371 0.001,-1.3e-4 0.003,1.3e-4 0.004,0 3.49098,-0.35923 6.29297,-3.34407 6.29297,-6.92578 l 0,-85.179689 c 0,-1.911738 -0.79894,-3.652615 -2.07422,-4.916016 -0.47686,-0.47242 -1.01985,-0.878718 -1.61328,-1.201172 -0.25132,-0.136557 -0.51527,-0.251882 -0.7832,-0.357422 -0.15592,-0.06141 -0.31181,-0.123573 -0.47266,-0.173828 -0.004,-0.0012 -0.008,-0.0027 -0.0117,-0.0039 -0.003,-9.79e-4 -0.007,-9.79e-4 -0.01,-0.002 -0.002,-6.05e-4 -0.004,-0.0014 -0.006,-0.002 -0.001,-4.21e-4 -0.003,-0.0015 -0.004,-0.002 -0.006,-0.0019 -0.0132,-0.002 -0.0195,-0.0039 -0.003,-7.78e-4 -0.005,-0.0012 -0.008,-0.002 -0.0121,-0.0038 -0.025,-0.006 -0.0371,-0.0098 -0.005,-0.0014 -0.009,-0.0025 -0.0137,-0.0039 -0.01,-0.0029 -0.0196,-0.005 -0.0293,-0.0078 -0.002,-5.26e-4 -0.004,5.24e-4 -0.006,0 -0.008,-0.0024 -0.0156,-0.0054 -0.0234,-0.0078 0,0 -0.002,0 -0.002,0 -0.0271,-0.0086 -0.0548,-0.01519 -0.082,-0.02344 -0.0224,-0.007 -0.0459,-0.0108 -0.0684,-0.01758 -10e-4,-3.99e-4 -0.003,-0.0016 -0.004,-0.002 -0.0199,-0.006 -0.0406,-0.0098 -0.0605,-0.01562 -0.0314,-0.0099 -0.0641,-0.01594 -0.0957,-0.02539 -0.0274,-0.0086 -0.0584,-0.01518 -0.0859,-0.02344 -0.003,-7.35e-4 -0.005,-0.0012 -0.008,-0.002 -0.0269,-0.0084 -0.055,-0.01339 -0.082,-0.02148 -0.0365,-0.01153 -0.0746,-0.01835 -0.11133,-0.0293 -0.043,-0.01358 -0.0875,-0.02435 -0.13086,-0.03711 -0.041,-0.01283 -0.0837,-0.02112 -0.125,-0.0332 -0.0435,-0.01363 -0.0889,-0.02237 -0.13281,-0.03516 -0.0461,-0.01443 -0.0942,-0.02362 -0.14063,-0.03711 -0.0415,-0.01301 -0.0851,-0.02096 -0.12695,-0.0332 -0.0584,-0.0185 -0.11871,-0.03185 -0.17773,-0.04883 -0.0473,-0.01479 -0.0969,-0.02331 -0.14454,-0.03711 -0.0629,-0.01991 -0.12776,-0.03459 -0.1914,-0.05273 -0.0542,-0.01695 -0.11134,-0.02732 -0.16602,-0.04297 -0.0629,-0.01985 -0.12781,-0.03464 -0.1914,-0.05273 -0.0627,-0.01977 -0.12802,-0.03276 -0.19141,-0.05078 -0.0731,-0.02308 -0.14865,-0.03984 -0.22266,-0.06055 -0.0608,-0.01902 -0.12413,-0.03145 -0.18554,-0.04883 -0.0763,-0.02422 -0.15514,-0.04087 -0.23242,-0.0625 -0.0755,-0.02384 -0.15395,-0.03925 -0.23047,-0.06055 -0.0756,-0.02386 -0.15381,-0.04119 -0.23047,-0.0625 -0.0826,-0.02614 -0.16819,-0.0433 -0.25195,-0.06641 -0.0813,-0.02565 -0.16554,-0.0437 -0.24805,-0.06641 -0.084,-0.02658 -0.17058,-0.04688 -0.25586,-0.07031 -0.0876,-0.02777 -0.17859,-0.04597 -0.26758,-0.07031 -0.0916,-0.02906 -0.18625,-0.04891 -0.2793,-0.07422 -0.0937,-0.0297 -0.18991,-0.05234 -0.28515,-0.07813 -0.096,-0.03043 -0.19532,-0.05181 -0.29297,-0.07813 -0.0954,-0.03023 -0.19404,-0.05196 -0.29102,-0.07813 -0.105,-0.03346 -0.21335,-0.05741 -0.32031,-0.08594 -0.10243,-0.03244 -0.20821,-0.05624 -0.3125,-0.08398 -0.10817,-0.03436 -0.21984,-0.05877 -0.33008,-0.08789 -0.10812,-0.03424 -0.21989,-0.05888 -0.33008,-0.08789 -0.10759,-0.03415 -0.21848,-0.05892 -0.32812,-0.08789 -0.1157,-0.03695 -0.23545,-0.06476 -0.35352,-0.0957 -0.11773,-0.03751 -0.23919,-0.0644 -0.35937,-0.0957 -0.11971,-0.03811 -0.243,-0.06597 -0.36524,-0.09766 -0.12548,-0.03995 -0.25455,-0.07063 -0.38281,-0.103516 -0.12057,-0.03818 -0.24602,-0.06599 -0.36914,-0.09766 -0.1293,-0.04125 -0.26229,-0.07172 -0.39453,-0.105468 -0.13001,-0.04135 -0.26351,-0.07366 -0.39648,-0.107422 -0.13321,-0.0424 -0.26994,-0.07494 -0.40625,-0.109375 -0.13489,-0.04289 -0.27404,-0.07466 -0.41211,-0.109375 -0.13882,-0.04419 -0.28165,-0.07775 -0.42383,-0.113282 -0.14079,-0.04478 -0.28544,-0.07936 -0.42969,-0.115234 -0.14349,-0.04564 -0.29041,-0.08276 -0.4375,-0.119141 -0.14642,-0.04655 -0.2971,-0.08223 -0.44727,-0.11914 -0.1427,-0.04533 -0.28928,-0.08101 -0.43554,-0.117188 -0.15542,-0.04983 -0.31497,-0.08801 -0.47461,-0.126953 -0.15032,-0.04789 -0.30473,-0.08532 -0.45899,-0.123047 -0.16054,-0.05142 -0.32519,-0.09105 -0.49023,-0.130859 -0.15738,-0.0501 -0.31878,-0.08996 -0.48047,-0.128906 -0.15608,-0.04984 -0.31623,-0.08808 -0.47656,-0.126954 -0.16633,-0.05355 -0.33665,-0.09565 -0.50781,-0.136718 -0.16697,-0.0536 -0.33794,-0.0957 -0.50977,-0.136719 -0.17206,-0.05523 -0.34818,-0.09876 -0.52539,-0.140625 -0.17075,-0.05464 -0.34566,-0.09719 -0.52148,-0.138672 -0.17404,-0.05581 -0.35195,-0.100441 -0.53125,-0.142578 -0.17856,-0.05732 -0.36084,-0.105528 -0.54493,-0.148438 -0.17967,-0.0576 -0.36355,-0.10347 -0.54882,-0.146484 -0.18347,-0.05882 -0.37126,-0.106789 -0.56055,-0.15039 -0.1809,-0.05794 -0.36616,-0.103331 -0.55274,-0.146485 -0.19385,-0.06255 -0.39143,-0.114627 -0.59179,-0.160156 -0.18979,-0.06066 -0.38408,-0.109932 -0.58008,-0.154297 -0.19311,-0.0618 -0.39031,-0.113284 -0.58984,-0.158203 -0.19057,-0.06098 -0.38521,-0.111698 -0.58204,-0.15625 -0.19968,-0.06444 -0.40474,-0.117699 -0.61132,-0.164063 -0.20015,-0.06444 -0.40426,-0.117775 -0.61133,-0.164062 -0.20584,-0.06634 -0.41576,-0.122804 -0.62891,-0.169922 -0.20645,-0.06633 -0.41707,-0.120969 -0.63086,-0.167969 -0.20903,-0.06716 -0.42213,-0.124538 -0.63867,-0.171875 -0.2051,-0.0659 -0.41461,-0.119194 -0.62695,-0.166015 -0.22125,-0.07177 -0.44805,-0.132132 -0.67774,-0.181641 -0.21613,-0.06932 -0.43602,-0.129629 -0.66015,-0.177734 -0.21924,-0.07037 -0.44246,-0.131146 -0.66992,-0.179688 -0.21729,-0.06975 -0.43869,-0.129426 -0.66407,-0.177734 -0.22458,-0.07263 -0.45425,-0.135859 -0.6875,-0.185547 -0.22862,-0.0739 -0.46163,-0.135428 -0.69922,-0.185547 -0.22828,-0.07366 -0.46006,-0.139501 -0.69726,-0.189453 -0.2376,-0.0768 -0.47932,-0.142273 -0.72656,-0.193359 -0.23274,-0.07464 -0.46898,-0.141412 -0.71094,-0.191407 -0.23516,-0.07572 -0.47416,-0.140867 -0.71875,-0.191406 -0.23721,-0.0767 -0.47779,-0.144242 -0.72461,-0.195313 0,0 -0.002,0 -0.002,0 -0.24273,-0.0788 -0.48938,-0.147286 -0.74219,-0.199218 -0.2433,-0.07905 -0.49072,-0.147162 -0.74414,-0.199219 -0.24756,-0.08068 -0.49976,-0.148461 -0.75781,-0.201172 -0.24834,-0.08103 -0.50087,-0.150243 -0.75977,-0.203125 -0.25271,-0.08272 -0.50978,-0.155446 -0.77344,-0.208984 -0.25506,-0.08356 -0.51503,-0.153209 -0.78125,-0.207032 -0.25401,-0.08332 -0.51225,-0.155158 -0.77734,-0.208984 -0.262,-0.08653 -0.52893,-0.159738 -0.80274,-0.214844 -0.26192,-0.08633 -0.52903,-0.159916 -0.80273,-0.214843 -0.26513,-0.08757 -0.5353,-0.163375 -0.8125,-0.21875 -0.26491,-0.08757 -0.53552,-0.159416 -0.8125,-0.214844 -0.27201,-0.09049 -0.54923,-0.168057 -0.83399,-0.224609 -0.27314,-0.09068 -0.55191,-0.168152 -0.83789,-0.22461 -0.27185,-0.09033 -0.54941,-0.166221 -0.83398,-0.222656 -0.27653,-0.09247 -0.55989,-0.171156 -0.84961,-0.228516 -0.28106,-0.09422 -0.56859,-0.172545 -0.86328,-0.230468 -0.28181,-0.0945 -0.56972,-0.172468 -0.86524,-0.230469 -0.28679,-0.09646 -0.57986,-0.177702 -0.88085,-0.236328 -0.28441,-0.09565 -0.57467,-0.175919 -0.87305,-0.234375 -0.28985,-0.09814 -0.58622,-0.178822 -0.89063,-0.238282 -0.29356,-0.0996 -0.59384,-0.18229 -0.90234,-0.242187 -0.29478,-0.100099 -0.59641,-0.18213 -0.90625,-0.242188 -0.29779,-0.101329 -0.60285,-0.183698 -0.91602,-0.24414 -0.30033,-0.102416 -0.60783,-0.187244 -0.92382,-0.248047 -0.30347,-0.103684 -0.61415,-0.188823 -0.9336,-0.25 -0.30288,-0.103576 -0.61282,-0.188769 -0.93164,-0.25 -0.30946,-0.106441 -0.62699,-0.191731 -0.95312,-0.253906 -0.31146,-0.107043 -0.63067,-0.195615 -0.95899,-0.257813 -0.31044,-0.10671 -0.62983,-0.193697 -0.95703,-0.255859 -0.31514,-0.108927 -0.63825,-0.196798 -0.9707,-0.259766 -0.3188,-0.110415 -0.6459,-0.200321 -0.98242,-0.263672 -0.32054,-0.111109 -0.64984,-0.200153 -0.98828,-0.263672 -0.32253,-0.112024 -0.65347,-0.201805 -0.99415,-0.265625 -0.32621,-0.113644 -0.66105,-0.20524 -1.00585,-0.269531 -0.3269,-0.114 -0.66225,-0.205098 -1.00782,-0.269531 -0.33179,-0.116152 -0.67238,-0.210356 -1.02344,-0.275391 -0.3329,-0.116527 -0.67506,-0.208376 -1.02734,-0.273437 -0.33483,-0.117448 -0.67875,-0.213935 -1.0332,-0.279297 -0.33915,-0.119302 -0.68954,-0.21348 -1.04883,-0.279297 -0.33894,-0.119214 -0.68783,-0.213497 -1.04687,-0.279297 -0.34156,-0.120717 -0.69265,-0.216774 -1.05469,-0.283203 -0.34707,-0.123129 -0.70599,-0.222049 -1.07422,-0.289063 -0.34679,-0.122888 -0.70436,-0.220237 -1.07227,-0.287109 -0.35103,-0.124872 -0.71323,-0.221641 -1.08593,-0.289062 -0.35303,-0.125723 -0.71686,-0.225371 -1.0918,-0.292969 -0.35575,-0.126963 -0.72354,-0.227019 -1.10156,-0.294922 -0.35611,-0.127282 -0.72313,-0.226829 -1.10157,-0.294922 -0.36148,-0.129819 -0.7346,-0.232024 -1.11914,-0.300781 -0.36338,-0.130612 -0.73831,-0.231898 -1.125,-0.300781 -0.36443,-0.131114 -0.74103,-0.23372 -1.1289,-0.302735 -0.36806,-0.132919 -0.74862,-0.235164 -1.14063,-0.304687 -0.37076,-0.134158 -0.75336,-0.238803 -1.14844,-0.308594 -0.37299,-0.135184 -0.75864,-0.238581 -1.15625,-0.308594 -0.37596,-0.136547 -0.76502,-0.242209 -1.16601,-0.3125 -0.37661,-0.136913 -0.76625,-0.24208 -1.16797,-0.3125 -0.38191,-0.139411 -0.77778,-0.247404 -1.18555,-0.318359 -0.38272,-0.139634 -0.77882,-0.245523 -1.1875,-0.316406 -0.38509,-0.140792 -0.78392,-0.249164 -1.19531,-0.320313 -0.38815,-0.142299 -0.79019,-0.252721 -1.20508,-0.324219 -0.39058,-0.143426 -0.79521,-0.252522 -1.21289,-0.324218 -0.3937,-0.144851 -0.80141,-0.2562 -1.22265,-0.328125 -0.39415,-0.145129 -0.80286,-0.254141 -1.22461,-0.326172 -0.39801,-0.147138 -0.81012,-0.259503 -1.23633,-0.332032 -0.39962,-0.147972 -0.81412,-0.259303 -1.24219,-0.332031 -0.40377,-0.149938 -0.82302,-0.264833 -1.25586,-0.33789 -0.40294,-0.149673 -0.822,-0.262827 -1.25391,-0.335938 -0.40838,-0.15245 -0.83329,-0.266135 -1.27148,-0.339844 -0.40982,-0.153135 -0.83555,-0.267983 -1.27539,-0.341797 -0.41329,-0.154724 -0.84328,-0.271702 -1.28711,-0.345703 -0.41499,-0.155486 -0.84718,-0.271632 -1.29297,-0.345703 -0.41741,-0.156688 -0.85219,-0.273379 -1.30078,-0.347656 -0.41924,-0.157672 -0.85593,-0.27511 -1.30664,-0.349609 -0.42403,-0.159997 -0.86601,-0.27869 -1.32227,-0.353516 -0.42195,-0.15914 -0.86057,-0.278687 -1.31445,-0.353516 -0.42813,-0.162465 -0.87485,-0.281889 -1.33594,-0.357421 -0.43146,-0.163887 -0.88078,-0.285781 -1.3457,-0.361329 -0.43054,-0.163378 -0.87991,-0.283937 -1.34375,-0.359375 -0.43473,-0.165718 -0.88867,-0.287322 -1.35742,-0.363281 -0.438,-0.167257 -0.89465,-0.291102 -1.36719,-0.367187 -0.43852,-0.167587 -0.89599,-0.291004 -1.36914,-0.367188 -0.44177,-0.169426 -0.90388,-0.292555 -1.38086,-0.36914 -0.44656,-0.171585 -0.91395,-0.296412 -1.39648,-0.373047 -0.44496,-0.170785 -0.90997,-0.296497 -1.39063,-0.373047 -0.44984,-0.173468 -0.91985,-0.299918 -1.40625,-0.376953 -0.45195,-0.174438 -0.9252,-0.301849 -1.41406,-0.378907 -0.45307,-0.175172 -0.92778,-0.301627 -1.41797,-0.378906 -0.4594,-0.178276 -0.93991,-0.307268 -1.4375,-0.384766 -0.4577,-0.177307 -0.93606,-0.30745 -1.43164,-0.384765 -0.46222,-0.179806 -0.94634,-0.309003 -1.44727,-0.386719 -0.46409,-0.180727 -0.95,-0.310904 -1.45312,-0.388672 -0.46472,-0.181303 -0.95118,-0.312591 -1.45508,-0.390625 -0.4697,-0.184044 -0.96286,-0.316109 -1.47265,-0.394531 -0.47124,-0.184805 -0.96497,-0.318028 -1.47657,-0.396484 -0.47366,-0.186044 -0.97186,-0.317945 -1.48633,-0.396485 -0.47477,-0.186858 -0.97246,-0.321585 -1.48828,-0.40039 -0.4804,-0.189817 -0.98534,-0.325249 -1.50781,-0.404297 -0.4796,-0.189208 -0.98437,-0.323502 -1.50586,-0.402344 -0.48206,-0.190869 -0.9892,-0.32697 -1.51367,-0.40625 -0.48662,-0.193316 -0.99942,-0.328713 -1.5293,-0.408203 -0.4883,-0.194189 -1.00133,-0.332579 -1.5332,-0.412109 -0.49228,-0.196071 -1.01031,-0.334613 -1.54688,-0.414063 -0.49086,-0.195357 -1.00808,-0.334622 -1.54296,-0.414063 -0.49695,-0.198782 -1.02035,-0.338171 -1.5625,-0.417968 -0.49625,-0.19848 -1.01922,-0.338124 -1.56055,-0.417969 -0.50134,-0.201261 -1.03071,-0.341841 -1.57813,-0.421875 -0.50141,-0.201302 -1.03061,-0.343791 -1.57812,-0.423828 -0.50537,-0.203558 -1.03955,-0.345526 -1.5918,-0.425781 -0.50552,-0.203833 -1.03932,-0.347303 -1.5918,-0.427735 -0.51055,-0.206693 -1.05086,-0.349016 -1.60937,-0.429687 C 165.7875,43.684978 164.91303,43.5 164,43.5 l -136,0 z"
         style="color:#000000;font-style:normal;font-variant:normal;font-weight:normal;font-stretch:normal;font-size:medium;line-height:normal;font-family:sans-serif;text-indent:0;text-align:start;text-decoration:none;text-decoration-line:none;text-decoration-style:solid;text-decoration-color:#000000;letter-spacing:normal;word-spacing:normal;text-transform:none;direction:ltr;block-progression:tb;writing-mode:lr-tb;baseline-shift:baseline;text-anchor:start;white-space:normal;clip-rule:nonzero;display:inline;overflow:visible;visibility:visible;opacity:0.5;isolation:auto;mix-blend-mode:normal;color-interpolation:sRGB;color-interpolation-filters:linearRGB;solid-color:#000000;solid-opacity:1;fill:url(#linearGradient7299);fill-opacity:1;fill-rule:nonzero;stroke:none;stroke-width:6;stroke-linecap:butt;stroke-linejoin:miter;stroke-miterlimit:4;stroke-dasharray:none;stroke-dashoffset:0;stroke-opacity:1;color-rendering:auto;image-rendering:auto;shape-rendering:auto;text-rendering:auto;enable-background:accumulate" />
    </g>
  </g>
  <g
     inkscape:groupmode="layer"
     id="layer10"
     inkscape:label="TV"
     style="display:inline"
     transform="translate(0,36)">
    <a
       id="a3617">
      <rect
         rx="7.363636"
         ry="10.125"
         y="-35.999977"
         x="-3.8146973e-006"
         height="108"
         width="108"
         id="rect11154"
         style="display:inline;opacity:1;fill:#424242;fill-opacity:1" />
    </a>
    <path
       style="display:inline;opacity:1;fill:#424242;fill-opacity:1;stroke:#ffffff;stroke-width:2.65604281;stroke-opacity:1"
       d="m 24.171884,-3.5510432 c -0.980964,0 -1.770695,0.7822116 -1.770695,1.7538433 l 0,37.7076679 c 0,0.971632 0.789731,1.753844 1.770695,1.753844 l 60.203642,0 c 0.98097,0 1.770692,-0.782212 1.770692,-1.753844 l 0,-37.7076679 c 0,-0.9716317 -0.789722,-1.7538433 -1.770692,-1.7538433 l -60.203642,0 z m 19.034975,42.5093312 0,1.315379 22.133691,0 0,-1.315379 -22.133691,0 z"
       id="rect4151"
       inkscape:connector-curvature="0" />
  </g>
</svg>
